<svg width="36" height="30" viewBox="0 0 36 30" fill="none" xmlns="http://www.w3.org/2000/svg">
<path fill-rule="evenodd" clip-rule="evenodd" d="M1.4083 15.6356L19.3339 15.7134C19.1361 16.5111 18.0413 17.4589 17.4746 17.9964L15.342 20.135C14.1232 21.4265 10.0878 24.7199 8.57719 25.6544C7.87304 26.0893 6.71623 26.8718 5.96346 27.2232L1.62122 28.9117C0.960659 29.0408 0.529788 29.0902 0 29.2763C4.07735 29.358 14.4233 29.755 17.7529 28.8585C20.2677 28.1804 23.5001 25.4644 25.5455 23.5651C27.1348 22.0894 28.3788 20.7219 29.8944 19.0524L32.9809 15.5691C33.5241 14.948 33.7589 14.7657 33.9332 14.0402C33.1302 13.4609 26.0082 13.7496 25.1364 13.7496C22.3248 13.7496 19.1361 13.911 16.3731 13.7325C16.4184 13.1285 17.7177 12.0687 18.1486 11.6034C22.0331 7.4135 27.72 2.60637 32.7915 0.976769C33.3699 0.790638 33.7153 0.619701 34.3054 0.454462C34.7128 0.340504 35.5947 0.24174 35.9333 0.120185L21.8018 0.0670046C17.0169 0.0328172 13.5398 2.71083 9.96034 6.10298C9.37523 6.65758 1.55918 14.7277 1.4083 15.6356Z" fill="url(#paint0_linear_1_6)"/>
<defs>
<linearGradient id="paint0_linear_1_6" x1="17.9667" y1="0.0666809" x2="1.63334" y2="31.0839" gradientUnits="userSpaceOnUse">
<stop stop-color="#00BCA5"/>
<stop offset="1" stop-color="#00E0FF"/>
</linearGradient>
</defs>
</svg>
